<svg width="40" height="40" viewBox="0 0 40 40" fill="none" xmlns="http://www.w3.org/2000/svg">
<g clip-path="url(#clip0_510_32488)">
<path d="M0 20C0 8.9548 8.9548 0 20 0C31.0452 0 40 8.9548 40 20C40 31.0452 31.0452 40 20 40C8.9548 40 0 31.0452 0 20ZM28.1433 23.3952C28.2847 23.5441 28.4545 23.6631 28.6427 23.7453C28.8309 23.8275 29.0336 23.8713 29.2389 23.8739C29.4443 23.8765 29.648 23.838 29.8383 23.7606C30.0285 23.6833 30.2013 23.5686 30.3465 23.4234C30.4917 23.2782 30.6063 23.1054 30.6837 22.9152C30.7611 22.725 30.7996 22.5212 30.797 22.3158C30.7943 22.1105 30.7506 21.9078 30.6684 21.7196C30.5862 21.5314 30.4671 21.3616 30.3183 21.2202L21.0875 11.9894C20.799 11.7011 20.4079 11.5392 20 11.5392C19.5921 11.5392 19.201 11.7011 18.9125 11.9894L9.6817 21.2202C9.4054 21.5111 9.2536 21.8984 9.2587 22.2995C9.2639 22.7007 9.4255 23.084 9.7092 23.3677C9.9929 23.6514 10.3762 23.813 10.7774 23.8182C11.1786 23.8233 11.5659 23.6715 11.8567 23.3952L20 15.2529L28.1433 23.3952Z" fill="#6DB48F"/>
</g>
<defs>
<clipPath id="clip0_510_32488">
<rect width="40" height="40" fill="white" transform="matrix(-1 0 0 -1 40 40)"/>
</clipPath>
</defs>
</svg>
