<svg width="40rem" height="40rem" viewBox="0 0 40 40" fill="none" xmlns="http://www.w3.org/2000/svg">
<path d="M20 1.74846e-06C31.0452 7.82854e-07 40 8.95481 40 20C40 31.0452 31.0452 40 20 40C8.95481 40 2.71406e-06 31.0452 1.74846e-06 20C7.82854e-07 8.95481 8.95481 2.71406e-06 20 1.74846e-06ZM16.6048 28.1433C16.4559 28.2847 16.3369 28.4545 16.2547 28.6427C16.1725 28.8309 16.1288 29.0336 16.1261 29.2389C16.1235 29.4443 16.162 29.648 16.2394 29.8383C16.3167 30.0285 16.4314 30.2013 16.5766 30.3465C16.7218 30.4917 16.8946 30.6064 17.0848 30.6837C17.275 30.7611 17.4788 30.7996 17.6842 30.797C17.8895 30.7943 18.0922 30.7506 18.2804 30.6684C18.4686 30.5862 18.6384 30.4671 18.7798 30.3183L28.0106 21.0875C28.2989 20.799 28.4608 20.4079 28.4608 20C28.4608 19.5922 28.2989 19.201 28.0106 18.9125L18.7798 9.68173C18.4889 9.40539 18.1016 9.25361 17.7005 9.25875C17.2993 9.26389 16.916 9.42553 16.6323 9.70923C16.3486 9.99292 16.187 10.3762 16.1818 10.7774C16.1767 11.1786 16.3285 11.5659 16.6048 11.8567L24.7471 20L16.6048 28.1433Z" fill="#303030"/>
</svg>
