<svg width="15" height="16" viewBox="0 0 15 16" fill="none" xmlns="http://www.w3.org/2000/svg">
<g id="phone-outgoing" clip-path="url(#clip0_7499_2848)">
<path id="Icon" d="M14.375 4.875V1.125M14.375 1.125H10.625M14.375 1.125L10 5.5M13.75 11.075V12.95C13.7507 13.1241 13.7151 13.2964 13.6453 13.4558C13.5756 13.6153 13.4733 13.7585 13.3451 13.8762C13.2168 13.9938 13.0654 14.0834 12.9005 14.1392C12.7356 14.195 12.5609 14.2157 12.3875 14.2C10.4643 13.991 8.61689 13.3338 6.99377 12.2813C5.48366 11.3217 4.20335 10.0414 3.24377 8.53125C2.18751 6.90075 1.53017 5.04437 1.32502 3.1125C1.3094 2.93967 1.32994 2.76548 1.38533 2.60102C1.44072 2.43656 1.52975 2.28543 1.64675 2.15726C1.76374 2.0291 1.90615 1.92669 2.06489 1.85658C2.22363 1.78646 2.39523 1.75016 2.56877 1.75H4.44377C4.74709 1.74701 5.04114 1.85442 5.27112 2.05221C5.5011 2.24999 5.65132 2.52465 5.69377 2.825C5.77291 3.42504 5.91968 4.0142 6.13127 4.58125C6.21536 4.80495 6.23356 5.04807 6.18371 5.2818C6.13386 5.51553 6.01806 5.73007 5.85002 5.9L5.05627 6.69375C5.94599 8.25847 7.24155 9.55403 8.80627 10.4437L9.60002 9.65C9.76995 9.48196 9.98449 9.36616 10.2182 9.31631C10.4519 9.26646 10.6951 9.28466 10.9188 9.36875C11.4858 9.58034 12.075 9.72711 12.675 9.80625C12.9786 9.84908 13.2559 10.002 13.4541 10.2359C13.6523 10.4699 13.7576 10.7685 13.75 11.075Z" stroke="white" stroke-width="1.67" stroke-linecap="round" stroke-linejoin="round"/>
</g>
<defs>
<clipPath id="clip0_7499_2848">
<rect width="15" height="15" fill="white" transform="translate(0 0.5)"/>
</clipPath>
</defs>
</svg>
