<svg width="50" height="50" viewBox="0 0 50 50" fill="none" xmlns="http://www.w3.org/2000/svg">
<g id="Artboard">
<path id="Oval" d="M25 50C38.8071 50 50 38.8071 50 25C50 11.1929 38.8071 0 25 0C11.1929 0 0 11.1929 0 25C0 38.8071 11.1929 50 25 50Z" fill="url(#paint0_linear_7634_1582)"/>
<path id="Path 3" fill-rule="evenodd" clip-rule="evenodd" d="M11.3166 24.7361C18.6046 21.5609 23.4644 19.4675 25.8961 18.4562C32.8388 15.5684 34.2815 15.0668 35.2218 15.0502C35.4286 15.0466 35.891 15.0978 36.1905 15.3409C36.4434 15.5461 36.513 15.8233 36.5463 16.0179C36.5796 16.2125 36.6211 16.6557 36.5881 17.0021C36.2119 20.9552 34.584 30.5483 33.7557 34.9758C33.4053 36.8492 32.7153 37.4774 32.0472 37.5389C30.5954 37.6725 29.493 36.5794 28.0869 35.6577C25.8865 34.2153 24.6435 33.3175 22.5077 31.91C20.0394 30.2835 21.6395 29.3895 23.0462 27.9285C23.4143 27.5461 29.811 21.7279 29.9348 21.2001C29.9502 21.134 29.9646 20.888 29.8184 20.7581C29.6723 20.6281 29.4565 20.6726 29.3008 20.7079C29.0801 20.758 25.5651 23.0813 18.7557 27.6778C17.7579 28.363 16.8542 28.6968 16.0445 28.6793C15.1519 28.66 13.4348 28.1746 12.1584 27.7596C10.5927 27.2507 9.34842 26.9817 9.45677 26.1173C9.51321 25.6672 10.1332 25.2068 11.3166 24.7361Z" fill="white"/>
</g>
<defs>
<linearGradient id="paint0_linear_7634_1582" x1="25" y1="0" x2="25" y2="49.6292" gradientUnits="userSpaceOnUse">
<stop stop-color="#2AABEE"/>
<stop offset="1" stop-color="#229ED9"/>
</linearGradient>
</defs>
</svg>
