<svg width="15" height="16" viewBox="0 0 15 16" fill="none" xmlns="http://www.w3.org/2000/svg">
<g id="moon">
<path id="Icon" d="M13.125 8.49375C13.0267 9.55763 12.6274 10.5715 11.9739 11.4167C11.3204 12.262 10.4397 12.9036 9.43481 13.2666C8.42995 13.6296 7.34249 13.6988 6.29969 13.4663C5.25689 13.2338 4.30187 12.7091 3.54639 11.9536C2.79091 11.1981 2.26621 10.2431 2.03369 9.20031C1.80117 8.15751 1.87045 7.07005 2.23341 6.06519C2.59638 5.06032 3.23802 4.1796 4.08326 3.5261C4.9285 2.87259 5.94237 2.47332 7.00625 2.375C6.38338 3.21767 6.08366 4.25591 6.16158 5.30088C6.23951 6.34586 6.68991 7.32816 7.43088 8.06912C8.17184 8.81009 9.15414 9.26049 10.1991 9.33842C11.2441 9.41634 12.2823 9.11662 13.125 8.49375Z" stroke="#98A2B3" stroke-width="1.67" stroke-linecap="round" stroke-linejoin="round"/>
</g>
</svg>
