<svg width="25" height="24" viewBox="0 0 25 24" fill="none" xmlns="http://www.w3.org/2000/svg">
<g id="clipboard">
<path id="Icon" d="M16.6665 4H18.6665C19.1969 4 19.7056 4.21071 20.0807 4.58579C20.4558 4.96086 20.6665 5.46957 20.6665 6V20C20.6665 20.5304 20.4558 21.0391 20.0807 21.4142C19.7056 21.7893 19.1969 22 18.6665 22H6.6665C6.13607 22 5.62736 21.7893 5.25229 21.4142C4.87722 21.0391 4.6665 20.5304 4.6665 20V6C4.6665 5.46957 4.87722 4.96086 5.25229 4.58579C5.62736 4.21071 6.13607 4 6.6665 4H8.6665M9.6665 2H15.6665C16.2188 2 16.6665 2.44772 16.6665 3V5C16.6665 5.55228 16.2188 6 15.6665 6H9.6665C9.11422 6 8.6665 5.55228 8.6665 5V3C8.6665 2.44772 9.11422 2 9.6665 2Z" stroke="#5B9B7A" stroke-width="2" stroke-linecap="round" stroke-linejoin="round"/>
</g>
</svg>
